# xmcd CD database file
#
# Track frame offsets:
#	150
#	45667
#	96755
#	141055
#	208627
#	221285
#	261092
#
# Disc length: 4171 seconds
#
# Revision: 4
# Processed by: cddbd v1.5.2PL0 Copyright (c) Steve Scherf et al.
# Submitted via: CDex 1.51
#
DISCID=5f104907
DTITLE=Brad Mehldau - The Art of the Trio 5 - 1 Progression
DYEAR=2001
DGENRE=Jazz
TTITLE0=The More I See You
TTITLE1=Dream's Monk
TTITLE2=The Folks Who Live On The Hill
TTITLE3=Alone Toghether
TTITLE4=It Might As Well Be Spring
TTITLE5=Cry Me A River
TTITLE6=River Man
EXTD=YEAR: 2001
EXTT0=
EXTT1=
EXTT2=
EXTT3=
EXTT4=
EXTT5=
EXTT6=
PLAYORDER=
